<svg id="Capa_1" enable-background="new 0 0 512 512" height="512" viewBox="0 0 512 512" width="512" xmlns="http://www.w3.org/2000/svg"><g><g><g><path d="m36.2 266.19c-4.173 0-8.008-2.713-9.405-6.641-1.377-3.872-.211-8.328 2.936-10.991 3.282-2.777 8.094-3.122 11.746-.864 3.503 2.166 5.34 6.406 4.533 10.445-.921 4.61-5.107 8.051-9.81 8.051z"/></g><g><g><path d="m339.793 387.128h-157.788c-5.523 0-10-4.478-10-10s4.477-10 10-10h157.788c5.523 0 10 4.478 10 10s-4.478 10-10 10z"/></g></g><g><g><path d="m312.78 434.617h-103.762c-5.523 0-10-4.478-10-10s4.477-10 10-10h103.762c5.523 0 10 4.478 10 10 0 5.523-4.477 10-10 10z"/></g></g><g><path d="m321.775 325.975c-7.818 0-16.889-1.83-27.586-6.293-4.487-1.873-10.54-5.783-18.506-11.954-.206-.159-.406-.327-.599-.503l-12.881-11.699c-.116-.104-.229-.213-.34-.323l-94.054-93.835c-.11-.11-.219-.224-.324-.339l-11.726-12.851c-.176-.192-.345-.393-.505-.599-6.188-7.95-10.108-13.992-11.985-18.471-13.795-32.912-2.527-50.447 10.315-63.26l15.558-15.521c15.575-15.536 40.915-15.536 56.489 0l16.142 16.104c7.339 7.321 11.38 17.058 11.38 27.416 0 10.357-4.042 20.094-11.381 27.415l-9.378 9.357c11.412 34.596 25.574 48.716 60.271 60.102l9.397-9.375c15.135-15.101 39.761-15.1 54.895 0l16.141 16.104c7.552 7.534 11.711 17.553 11.711 28.211 0 10.659-4.159 20.678-11.71 28.212l-15.558 15.522c-8.669 8.647-19.497 16.578-35.766 16.58zm-33.538-33.822c8.577 6.62 12.4 8.547 13.654 9.07 23.161 9.662 32.508 3.006 41.522-5.987l15.558-15.521c3.764-3.755 5.836-8.746 5.836-14.054 0-5.307-2.073-10.298-5.836-14.053l-16.141-16.104c-7.346-7.328-19.297-7.328-26.643 0l-13.683 13.651c-2.606 2.601-6.429 3.557-9.954 2.494-47.125-14.23-66.83-33.891-81.094-80.912-1.072-3.535-.108-7.374 2.506-9.982l13.683-13.651c3.551-3.543 5.507-8.251 5.507-13.258 0-5.006-1.955-9.714-5.506-13.257l-16.142-16.104c-7.785-7.767-20.453-7.767-28.237 0l-15.558 15.521c-9.003 8.983-15.668 18.294-5.996 41.37.523 1.248 2.453 5.059 9.085 13.613l11.301 12.384 93.723 93.504z"/></g><path d="m485.798 78.074c0-14.871-12.098-26.969-26.969-26.969h-23.76v-41.105c0-5.523-4.477-10-10-10h-356.948c-23.114 0-41.919 18.805-41.919 41.919v168.875c0 5.523 4.477 10 10 10s10-4.477 10-10v-168.875c0-12.086 9.833-21.919 21.919-21.919h17.586v472h-17.586c-12.086 0-21.919-9.833-21.919-21.919v-168.875c0-5.522-4.477-10-10-10s-10 4.478-10 10v168.875c0 23.114 18.805 41.919 41.919 41.919h356.948c5.523 0 10-4.478 10-10v-116.297h23.76c14.871 0 26.969-12.098 26.969-26.969v-44.7c0-6.428-2.261-12.338-6.029-16.977 3.768-4.638 6.029-10.548 6.029-16.976v-44.7c0-6.428-2.261-12.337-6.029-16.976 3.768-4.639 6.029-10.549 6.029-16.977v-44.7c0-6.428-2.261-12.337-6.028-16.976 3.768-4.639 6.028-10.548 6.028-16.976zm-26.969-6.969c3.843 0 6.969 3.126 6.969 6.969v44.701c0 3.843-3.126 6.969-6.969 6.969h-23.76v-58.639zm6.969 208.976c0 3.843-3.126 6.969-6.969 6.969h-23.76v-58.638h23.76c3.843 0 6.969 3.126 6.969 6.969zm0-78.653c0 3.843-3.126 6.97-6.969 6.97h-23.76v-58.639h23.76c3.843 0 6.969 3.126 6.969 6.969zm-50.729 290.572h-309.362v-472h309.362zm50.729-133.266c0 3.843-3.126 6.969-6.969 6.969h-23.76v-58.639h23.76c3.843 0 6.969 3.127 6.969 6.97z"/></g></g></svg>