<svg enable-background="new 0 0 140 140" height="512" viewBox="0 0 140 140" width="512" xmlns="http://www.w3.org/2000/svg"><circle cx="70" cy="70" fill="#4da0dc" r="64"/><path d="m133.9999847 69.9999466c0-.1225586-.008606-.2432861-.0092773-.3658447l-22.577507-22.5775185-.0199585.0100098c-.5500488-.7700195-1.1600342-1.5200195-1.8500366-2.2099609l-4.0100098-4.0100098c-6.9299927-6.9399414-18.2199707-6.9299316-25.1599731 0l-9.9500122 9.9599609c-6.9400063-4.8599854-16.5900307-4.2099609-22.7799721 1.9799805l-17.1900006 17.1900673c-6.4400024 6.4400635-6.8900146 16.6199951-1.3800049 23.5899658l.0299683.0300293c.4199829.5300293.8599854 1.0400391 1.3500366 1.5300293l4.0099468 4.0100098c.4900513.4899902 1 .9299316 1.5300293 1.3599854l33.498539 33.490593c.170166.0012207.3377686.0126953.5082397.0126953 35.3463135-.0000001 63.9999924-28.6538011 63.9999924-63.9999925z" opacity=".1"/><path d="m109.5449905 44.8570976-4.0102158-4.0102158c-6.9352646-6.9352684-18.2227631-6.9351959-25.1580353.0000725l-17.1906623 17.1906624c-6.9411697 6.9411736-6.9353371 18.2227669-.0000725 25.1580391l4.0102158 4.0102081c3.3614502 3.3614502 7.8257675 5.2192001 12.5731506 5.213295 4.7532806 0 9.2233658-1.8516998 12.5849533-5.213295l17.1906662-17.1906586c6.9352646-6.9352683 6.9352646-18.2228431 0-25.1581077zm-39.2821121 20.2573204 17.1906586-17.1906662c1.5156555-1.5156555 3.5088882-2.2703857 5.502327-2.2704582 1.9932327 0 3.9865341.7548027 5.5021133 2.2703857l4.0102158 4.0102158c3.0371399 3.0371399 3.031311 7.9732018 0 11.0045128l-17.1906662 17.1906586c-1.4743271 1.4743347-3.426384 2.282341-5.5022507 2.282341-2.0758743 0-4.0338287-.8139114-5.5022583-2.282341l-4.0161209-4.0043106c-3.025261-3.0370636-3.0312348-7.9731293.0059814-11.0103379z" fill="#ededed"/><path d="m103.9130096 49.2859993-2.8012314-2.8012352c-4.8416824-4.8416824-13.0920486-4.481884-18.37603.8021011l-13.1097564 13.1097565c-5.2898941 5.2898865-5.6496925 13.5402527-.8080063 18.3819351l2.8071365 2.7953262c2.3353195 2.3471298 5.5493393 3.5561142 9.0170441 3.4027786 3.4675598-.1531982 6.793663-1.6512146 9.353157-4.2107086l13.1097565-13.1097565c5.2839814-5.2839812 5.6496201-13.528511.80793-18.3701972zm-18.6354827 30.8430672c-1.4743271 1.4743347-3.426384 2.282341-5.5022507 2.282341-2.0758743 0-4.0338287-.8139114-5.5022583-2.282341l-4.0161209-4.0043106c-3.0252609-3.0370636-3.0312347-7.9731293.0059814-11.0103378l17.1906586-17.1906663c1.5156555-1.5156555 3.5088882-2.2703857 5.502327-2.2704582 1.9932327 0 3.9865341.7548027 5.5021133 2.2703857l4.0102158 4.0102158c3.0371399 3.0371399 3.031311 7.9732018 0 11.0045128z" fill="#dbd8dd"/><path d="m76.8161697 56.7924538-4.0102158-4.0102119c-6.9352646-6.9352684-18.2227631-6.9351959-25.1580315.0000725l-17.1906623 17.1906623c-6.9411716 6.9411697-6.9353409 18.2227707-.0000725 25.1580353l4.0102119 4.0102158c3.3614502 3.3614502 7.8257713 5.2191925 12.5731506 5.2132874 4.7532845 0 9.2233658-1.8516922 12.5849571-5.2132874l17.1906624-17.1906662c6.9352724-6.9352647 6.9352724-18.2228394.0000001-25.1581078zm-39.2821121 20.2573204 17.1906624-17.1906624c1.5156555-1.5156555 3.5088844-2.2703857 5.502327-2.2704582 1.9932289 0 3.9865303.7548027 5.5021095 2.2703857l4.0102158 4.0102119c3.0371399 3.0371437 3.031311 7.9732018 0 11.0045128l-17.1906624 17.1906662c-1.4743309 1.4743271-3.426384 2.2823334-5.5022545 2.2823334s-4.0338249-.8139038-5.5022545-2.2823334l-4.0161209-4.0043106c-3.0252609-3.0370712-3.0312348-7.9731369.0059776-11.0103454z" fill="#de594e"/><path d="m71.1841888 61.2213554-2.8012314-2.8012314c-4.8416824-4.8416862-13.0920448-4.481884-18.37603.8021011l-13.1097564 13.1097527c-5.2898884 5.2898941-5.6496887 13.5402527-.8080025 18.3819351l2.8071327 2.7953339c2.3353233 2.3471222 5.5493393 3.5561066 9.0170441 3.402771 3.4675636-.1531906 6.7936668-1.651207 9.3531609-4.210701l13.1097527-13.1097565c5.2839889-5.2839889 5.64962-13.5285186.8079299-18.3702049zm-18.6354789 30.8430748c-1.4743309 1.4743271-3.426384 2.2823334-5.5022545 2.2823334s-4.0338249-.8139038-5.5022545-2.2823334l-4.0161209-4.0043106c-3.0252609-3.0370712-3.0312347-7.9731369.0059776-11.0103455l17.1906624-17.1906623c1.5156555-1.5156555 3.5088844-2.2703857 5.502327-2.2704582 1.9932289 0 3.9865303.7548027 5.5021095 2.2703857l4.0102158 4.0102119c3.0371399 3.0371437 3.031311 7.9732018 0 11.0045128z" fill="#cd5248"/><path d="m86.1455002 79.2611771-.868042.8679199c-1.4743042 1.4743652-3.4262085 2.2822266-5.5021973 2.2824707-2.0757446-.0002441-4.0338745-.8139648-5.5022583-2.2824707l-4.0159912-4.0043945c-3.0253906-3.0368652-3.031311-7.9731445.0057373-11.0102539l.2850342-.2850342c-.2414551-.3352051-.5068359-.6585693-.8084106-.9600868l-4.0101929-4.0102539c-.7734985-.7734375-1.6722412-1.3461914-2.6310463-1.7241211-6.8476562 6.9484901-6.8162231 18.1567421.0878296 25.0607948l4.0101967 4.0102539c3.3614502 3.3614502 7.8258057 5.2192383 12.5733032 5.2131348 4.7531738.0001221 9.2232056-1.8515625 12.5848389-5.2131348l.868042-.868042z" fill="#ededed"/><path d="m86.1455002 79.2611771-.868042.8679199c-1.4743042 1.4743652-3.4262085 2.2822266-5.5021973 2.2824707-2.0757446-.0002441-4.0338745-.8139648-5.5022583-2.2824707l-4.0159912-4.0043945c-3.0253906-3.0368652-3.031311-7.9731445.0057373-11.0102539l.2850342-.2850342c-.2414551-.3352051-.5068359-.6585693-.8084106-.9600868l-1.6413574-1.6413574c-3.7578735 5.2210732-3.5956421 12.2351112.7199097 16.550663l2.807312 2.7952881c2.335144 2.347168 5.5493164 3.5560303 9.0169067 3.402832 2.9316406-.1296387 5.7567749-1.2298584 8.1083984-3.1105957z" fill="#dbd8dd"/></svg>