<svg id="svg" version="1.1" xmlns="http://www.w3.org/2000/svg" xmlns:xlink="http://www.w3.org/1999/xlink" width="400" height="400" viewBox="0, 0, 400,400"><g id="svgg"><path id="path0" d="M83.802 77.603 C 85.027 79.585,85.261 79.599,117.175 79.613 C 150.943 79.628,148.025 79.327,149.584 82.963 C 150.017 83.973,150.522 84.800,150.705 84.800 C 150.889 84.800,151.266 85.428,151.544 86.196 C 151.822 86.963,152.294 87.837,152.595 88.138 C 152.895 88.438,153.434 89.295,153.792 90.042 C 154.619 91.767,155.860 94.024,156.408 94.800 C 157.227 95.960,158.751 98.617,159.507 100.200 C 159.927 101.080,160.569 102.047,160.935 102.349 C 161.301 102.651,161.600 103.201,161.600 103.571 C 161.600 103.942,162.050 104.855,162.600 105.600 C 163.150 106.345,163.600 107.131,163.600 107.346 C 163.600 107.561,163.878 108.044,164.218 108.419 C 164.863 109.133,166.197 111.474,167.516 114.206 C 167.942 115.089,168.585 116.056,168.945 116.355 C 169.305 116.653,169.600 117.214,169.600 117.600 C 169.600 117.986,169.872 118.528,170.205 118.804 C 170.537 119.080,171.157 120.092,171.582 121.053 C 172.007 122.014,172.531 122.800,172.746 122.800 C 172.961 122.800,173.250 123.318,173.389 123.951 C 173.528 124.584,174.082 125.699,174.621 126.428 C 175.159 127.158,175.600 127.928,175.600 128.140 C 175.600 128.351,176.050 129.114,176.600 129.836 C 177.150 130.557,177.600 131.333,177.600 131.560 C 177.600 131.787,178.185 132.591,178.900 133.345 C 179.615 134.100,180.478 135.120,180.818 135.612 C 181.256 136.246,181.779 136.480,182.618 136.417 C 183.268 136.367,198.200 136.250,215.800 136.156 L 247.800 135.985 249.100 137.488 C 249.815 138.315,250.401 139.353,250.403 139.796 C 250.405 140.639,251.661 143.145,255.000 148.968 C 256.100 150.886,257.336 153.118,257.747 153.928 C 258.158 154.738,258.634 155.490,258.804 155.600 C 258.974 155.710,259.877 157.240,260.810 159.000 C 261.743 160.760,262.726 162.470,262.995 162.800 C 263.424 163.327,265.786 167.410,268.087 171.600 C 268.510 172.370,269.287 173.720,269.813 174.600 C 270.340 175.480,271.226 177.010,271.782 178.000 C 272.338 178.990,273.334 180.700,273.994 181.800 C 275.432 184.195,278.730 189.952,279.681 191.728 C 280.514 193.284,280.577 195.069,279.846 196.400 C 278.027 199.714,277.081 201.380,275.189 204.600 C 274.025 206.580,272.697 208.855,272.237 209.656 C 271.777 210.456,270.500 212.667,269.400 214.569 C 268.300 216.470,267.028 218.711,266.574 219.547 C 266.120 220.383,265.392 221.592,264.955 222.234 C 264.518 222.875,263.936 223.850,263.661 224.400 C 263.386 224.950,262.728 226.120,262.198 227.000 C 261.668 227.880,260.868 229.354,260.419 230.276 C 259.969 231.197,259.427 232.060,259.212 232.192 C 258.998 232.325,258.452 233.191,257.999 234.117 C 257.546 235.042,256.731 236.520,256.189 237.400 C 255.646 238.280,254.833 239.765,254.382 240.700 C 253.931 241.635,253.405 242.400,253.212 242.400 C 253.020 242.400,252.654 243.032,252.399 243.804 C 252.144 244.576,251.683 245.460,251.375 245.768 C 251.066 246.076,250.758 247.292,250.689 248.470 C 250.620 249.647,250.427 250.833,250.258 251.105 C 250.090 251.377,250.055 251.765,250.179 251.966 C 250.303 252.167,250.179 252.422,249.902 252.532 C 249.626 252.642,265.240 252.739,284.600 252.748 C 322.871 252.765,320.500 252.919,320.742 250.400 C 320.901 248.747,320.882 248.774,321.927 248.696 C 322.377 248.662,322.736 248.536,322.725 248.417 C 322.524 246.203,322.874 244.845,323.676 244.728 C 324.283 244.639,324.656 244.199,324.889 243.296 C 325.074 242.578,325.580 241.770,326.013 241.499 C 326.487 241.203,326.800 240.568,326.800 239.904 C 326.800 239.297,326.980 238.778,327.200 238.750 C 327.420 238.722,327.819 238.678,328.087 238.650 C 328.365 238.621,328.638 237.827,328.724 236.800 C 328.897 234.715,328.861 234.776,329.927 234.696 C 330.377 234.662,330.736 234.536,330.725 234.417 C 330.504 231.981,330.855 230.800,331.800 230.800 C 332.554 230.800,332.800 230.590,332.800 229.946 C 332.800 229.476,333.250 228.675,333.800 228.165 C 334.445 227.567,334.800 226.806,334.800 226.019 C 334.800 225.349,334.980 224.778,335.200 224.750 C 335.420 224.722,335.825 224.678,336.100 224.650 C 336.627 224.597,336.670 224.435,336.750 222.200 C 336.793 220.996,336.937 220.800,337.777 220.800 C 338.640 220.800,338.768 220.602,338.877 219.100 C 338.972 217.787,339.205 217.310,339.900 217.005 C 340.517 216.734,340.800 216.267,340.800 215.518 C 340.800 214.769,340.969 214.490,341.336 214.631 C 341.887 214.842,342.876 213.952,342.767 213.342 C 342.532 212.033,342.901 210.945,343.700 210.595 C 344.392 210.291,344.628 209.812,344.722 208.525 C 344.822 207.151,345.001 206.827,345.722 206.725 C 346.386 206.630,346.630 206.286,346.725 205.310 C 346.799 204.540,347.228 203.722,347.787 203.281 C 348.303 202.875,348.787 202.144,348.863 201.656 C 348.938 201.168,349.094 200.820,349.210 200.884 C 349.740 201.177,350.656 199.717,350.741 198.442 C 350.852 196.796,350.866 196.775,351.897 196.698 C 352.588 196.646,352.693 196.307,352.763 193.912 C 352.807 192.413,352.698 191.210,352.521 191.240 C 351.190 191.466,350.841 191.128,350.723 189.500 C 350.628 188.187,350.395 187.710,349.700 187.405 C 349.205 187.188,348.786 186.648,348.769 186.205 C 348.691 184.153,347.959 182.931,347.119 183.450 C 346.944 183.558,346.800 183.139,346.800 182.518 C 346.800 181.732,346.527 181.270,345.900 180.995 C 345.205 180.690,344.972 180.213,344.877 178.900 C 344.768 177.398,344.640 177.200,343.777 177.200 C 342.862 177.200,342.473 175.977,342.739 173.940 C 342.758 173.797,342.329 173.569,341.787 173.432 C 341.029 173.242,340.800 172.922,340.800 172.054 C 340.800 171.030,339.272 168.981,339.147 169.838 C 339.118 170.037,338.983 169.570,338.847 168.800 C 338.663 167.758,338.375 167.368,337.721 167.275 C 336.979 167.169,336.823 166.856,336.721 165.275 C 336.618 163.679,336.466 163.381,335.700 163.272 C 334.971 163.169,334.800 162.890,334.800 161.801 C 334.800 160.523,333.972 159.200,333.171 159.200 C 332.967 159.200,332.800 158.731,332.800 158.158 C 332.800 157.522,332.410 156.808,331.800 156.329 C 331.140 155.810,330.800 155.144,330.800 154.371 C 330.800 153.396,330.637 153.200,329.823 153.200 C 328.960 153.200,328.832 153.002,328.723 151.500 C 328.628 150.187,328.395 149.710,327.700 149.405 C 327.079 149.133,326.800 148.668,326.800 147.905 C 326.800 147.297,326.790 146.665,326.779 146.500 C 326.767 146.335,326.317 145.969,325.779 145.687 C 325.213 145.391,324.800 144.819,324.800 144.333 C 324.800 143.870,324.350 143.075,323.800 142.565 C 323.155 141.967,322.800 141.206,322.800 140.419 C 322.800 139.393,322.645 139.200,321.822 139.200 C 320.939 139.200,320.832 139.015,320.722 137.300 L 320.600 135.400 318.700 135.278 C 316.833 135.158,316.800 135.133,316.800 133.807 C 316.800 132.428,315.830 131.010,315.168 131.420 C 314.965 131.545,314.800 131.139,314.800 130.518 C 314.800 129.732,314.527 129.270,313.900 128.995 C 313.246 128.708,312.945 128.163,312.800 127.000 C 312.642 125.733,312.417 125.374,311.721 125.275 C 310.979 125.169,310.823 124.856,310.721 123.275 C 310.618 121.679,310.466 121.381,309.700 121.272 C 309.000 121.173,308.800 120.883,308.800 119.972 C 308.800 119.327,308.790 118.665,308.779 118.500 C 308.767 118.335,308.317 117.969,307.779 117.687 C 307.220 117.394,306.800 116.819,306.800 116.345 C 306.800 115.888,306.350 115.161,305.800 114.729 C 305.128 114.200,304.800 113.546,304.800 112.734 C 304.800 111.862,304.577 111.467,304.000 111.316 C 303.430 111.167,303.200 110.770,303.200 109.935 C 303.200 109.219,302.811 108.375,302.200 107.764 C 301.650 107.214,301.200 106.412,301.200 105.982 C 301.200 105.552,300.990 105.200,300.733 105.200 C 300.477 105.200,300.386 105.081,300.531 104.936 C 300.676 104.791,300.448 104.429,300.024 104.132 C 299.599 103.834,299.196 103.098,299.126 102.496 C 299.036 101.712,298.743 101.364,298.100 101.272 C 297.424 101.176,297.199 100.877,297.195 100.072 C 297.185 98.282,296.743 97.200,296.020 97.200 C 295.520 97.200,295.235 96.686,294.967 95.300 C 294.689 93.859,294.431 93.413,293.900 93.456 C 293.416 93.494,293.200 93.221,293.200 92.572 C 293.200 92.055,292.756 91.220,292.212 90.716 C 291.375 89.939,290.980 89.021,290.830 87.500 C 290.813 87.335,290.440 87.200,290.000 87.200 C 289.395 87.200,289.199 86.932,289.195 86.100 C 289.185 84.216,288.751 83.200,287.953 83.200 C 287.473 83.200,287.200 82.917,287.200 82.419 C 287.200 81.189,286.350 79.638,285.533 79.379 C 285.124 79.249,284.896 78.967,285.029 78.754 C 285.980 77.215,285.648 77.200,250.551 77.200 L 216.800 77.200 216.791 78.300 C 216.782 79.434,215.920 81.412,214.219 84.200 C 213.200 85.870,212.060 87.878,210.446 90.846 C 209.922 91.811,209.357 92.690,209.191 92.800 C 209.026 92.910,208.590 93.630,208.223 94.400 C 207.857 95.170,207.033 96.700,206.393 97.800 C 205.753 98.900,204.761 100.610,204.189 101.600 C 203.616 102.590,202.710 104.120,202.175 105.000 C 201.640 105.880,200.837 107.358,200.390 108.283 C 199.943 109.209,199.407 110.072,199.200 110.200 C 198.993 110.328,198.452 111.191,197.999 112.117 C 197.546 113.042,196.776 114.454,196.288 115.254 C 195.799 116.054,194.410 118.459,193.200 120.600 C 191.990 122.741,190.640 125.093,190.200 125.826 C 189.760 126.560,188.514 128.745,187.432 130.680 C 185.282 134.526,184.319 135.603,183.039 135.594 C 181.243 135.581,180.516 134.596,174.286 123.741 C 173.673 122.674,172.733 121.080,172.198 120.200 C 171.663 119.320,170.847 117.880,170.385 117.000 C 169.923 116.120,168.937 114.410,168.194 113.200 C 167.451 111.990,166.555 110.460,166.203 109.800 C 165.515 108.508,164.530 106.783,161.400 101.389 C 160.300 99.493,158.950 97.153,158.400 96.189 C 157.477 94.571,154.978 90.264,152.302 85.681 C 151.697 84.646,150.840 83.049,150.397 82.132 C 149.953 81.214,149.039 79.999,148.365 79.432 L 147.139 78.400 117.220 78.400 C 91.647 78.400,87.054 78.313,85.600 77.800 C 83.587 77.090,83.477 77.078,83.802 77.603 " stroke="none" fill="#1c9c74" fill-rule="evenodd"></path><path id="path1" d="M83.200 77.584 C 83.200 77.864,83.885 78.747,84.722 79.546 C 86.465 81.210,87.226 82.367,91.287 89.524 C 92.449 91.573,93.760 93.847,94.200 94.578 C 94.640 95.310,95.990 97.650,97.200 99.778 C 98.410 101.907,99.799 104.313,100.286 105.124 C 101.197 106.643,102.704 109.268,104.321 112.155 C 104.828 113.060,105.638 114.454,106.121 115.254 C 106.605 116.054,107.990 118.450,109.200 120.578 C 110.410 122.707,111.760 125.049,112.200 125.783 C 112.640 126.517,113.852 128.643,114.893 130.507 C 117.293 134.805,113.759 134.400,148.873 134.400 L 178.445 134.400 179.649 135.700 C 181.173 137.346,180.988 140.800,179.376 140.800 C 179.025 140.800,178.800 141.198,178.800 141.818 C 178.800 142.378,178.373 143.263,177.852 143.785 C 177.330 144.306,176.778 145.234,176.624 145.846 C 176.470 146.458,175.907 147.365,175.372 147.861 C 174.833 148.361,174.400 149.215,174.400 149.781 C 174.400 150.510,174.187 150.800,173.651 150.800 C 173.088 150.800,172.839 151.193,172.648 152.387 C 172.489 153.383,172.097 154.134,171.597 154.401 C 171.126 154.654,170.800 155.239,170.800 155.833 C 170.800 156.386,170.362 157.244,169.828 157.739 C 169.293 158.235,168.732 159.131,168.582 159.730 C 168.432 160.329,167.970 161.056,167.557 161.345 C 167.144 161.634,166.687 162.464,166.542 163.189 C 166.390 163.950,165.985 164.583,165.585 164.688 C 165.134 164.806,164.801 165.432,164.634 166.475 C 164.453 167.608,164.145 168.142,163.589 168.287 C 163.075 168.421,162.800 168.834,162.800 169.473 C 162.800 170.744,162.118 172.000,161.429 172.000 C 160.835 172.000,160.400 172.847,160.400 174.006 C 160.400 174.413,160.055 174.856,159.632 174.990 C 159.113 175.155,158.776 175.761,158.589 176.865 C 158.406 177.949,158.072 178.561,157.594 178.686 C 157.157 178.800,156.776 179.403,156.622 180.225 C 156.482 180.969,156.044 181.807,155.649 182.089 C 155.253 182.370,154.798 183.131,154.637 183.780 C 154.476 184.429,153.907 185.365,153.372 185.861 C 152.833 186.361,152.400 187.215,152.400 187.781 C 152.400 188.533,152.191 188.800,151.600 188.800 C 151.107 188.800,150.798 189.068,150.795 189.500 C 150.792 189.885,150.688 190.578,150.563 191.040 C 149.963 193.276,148.809 193.200,183.429 193.200 C 200.903 193.200,215.200 193.128,215.200 193.040 C 215.200 192.700,213.317 188.933,212.481 187.600 C 211.998 186.830,211.602 185.907,211.601 185.549 C 211.601 185.191,211.317 184.663,210.971 184.376 C 210.625 184.089,209.950 183.136,209.471 182.260 C 208.992 181.384,208.115 179.842,207.522 178.833 C 206.929 177.825,206.208 176.550,205.921 176.000 C 205.633 175.450,205.054 174.492,204.634 173.872 C 203.794 172.630,202.884 171.039,201.619 168.600 C 201.162 167.720,200.350 166.280,199.814 165.400 C 199.278 164.520,198.520 163.170,198.129 162.400 C 197.738 161.630,197.009 160.491,196.509 159.869 C 196.009 159.247,195.600 158.537,195.600 158.291 C 195.600 157.889,194.856 156.643,192.794 153.592 C 192.419 153.038,191.971 152.138,191.799 151.592 C 191.626 151.047,191.061 150.043,190.542 149.362 C 190.024 148.681,189.600 147.849,189.600 147.511 C 189.600 147.174,189.305 146.653,188.945 146.355 C 188.585 146.056,187.954 145.089,187.542 144.206 C 187.130 143.323,186.271 141.764,185.633 140.743 L 184.473 138.885 185.687 138.643 C 186.354 138.509,200.476 138.400,217.069 138.400 L 247.239 138.400 247.790 139.700 C 248.131 140.501,248.200 141.146,247.971 141.380 C 247.767 141.589,247.600 142.062,247.600 142.431 C 247.600 142.800,247.305 143.347,246.945 143.645 C 246.585 143.944,245.942 144.911,245.516 145.794 C 244.355 148.200,242.924 150.769,242.378 151.426 C 241.795 152.129,240.725 154.023,239.679 156.206 C 239.256 157.089,238.626 158.046,238.280 158.333 C 237.934 158.620,237.540 159.364,237.403 159.986 C 237.266 160.608,236.815 161.424,236.400 161.800 C 235.985 162.176,235.528 163.016,235.385 163.669 C 235.242 164.321,234.880 164.948,234.582 165.062 C 234.283 165.177,233.843 165.863,233.604 166.587 C 233.365 167.311,232.817 168.223,232.385 168.614 C 231.953 169.004,231.600 169.647,231.600 170.041 C 231.600 170.436,231.161 171.232,230.625 171.811 C 230.089 172.390,229.532 173.401,229.387 174.059 C 229.243 174.716,228.880 175.348,228.582 175.462 C 228.283 175.577,227.843 176.263,227.604 176.987 C 227.365 177.711,226.817 178.623,226.385 179.014 C 225.953 179.404,225.600 180.058,225.600 180.466 C 225.600 180.874,225.241 181.515,224.802 181.891 C 224.364 182.266,223.803 183.186,223.556 183.933 C 223.309 184.681,222.773 185.627,222.364 186.036 C 221.955 186.445,221.497 187.279,221.346 187.890 C 221.194 188.500,220.740 189.235,220.335 189.523 C 219.931 189.810,219.600 190.355,219.600 190.734 C 219.600 191.112,219.320 191.822,218.977 192.311 C 218.635 192.800,218.532 193.200,218.748 193.200 C 218.965 193.200,219.616 194.145,220.196 195.300 C 220.776 196.455,222.226 199.020,223.417 201.000 C 224.609 202.980,225.954 205.320,226.405 206.200 C 226.857 207.080,228.208 209.420,229.408 211.400 C 230.608 213.380,231.883 215.630,232.240 216.400 C 232.597 217.170,233.020 217.890,233.179 218.000 C 233.339 218.110,234.353 219.783,235.434 221.718 C 236.515 223.652,237.887 226.082,238.482 227.118 C 239.077 228.153,239.852 229.540,240.203 230.200 C 240.555 230.860,241.459 232.390,242.214 233.600 C 242.968 234.810,243.868 236.403,244.215 237.141 C 244.561 237.878,245.028 238.688,245.253 238.941 C 247.723 241.723,249.665 246.680,249.525 249.850 C 249.431 251.999,249.523 252.653,249.898 252.508 C 250.171 252.403,250.296 252.155,250.174 251.958 C 250.052 251.761,250.090 251.377,250.258 251.105 C 250.427 250.833,250.620 249.647,250.689 248.470 C 250.758 247.292,251.066 246.076,251.375 245.768 C 251.683 245.460,252.144 244.576,252.399 243.804 C 252.654 243.032,253.020 242.400,253.212 242.400 C 253.405 242.400,253.931 241.635,254.382 240.700 C 254.833 239.765,255.646 238.280,256.189 237.400 C 256.731 236.520,257.546 235.042,257.999 234.117 C 258.452 233.191,258.998 232.325,259.212 232.192 C 259.427 232.060,259.969 231.197,260.419 230.276 C 260.868 229.354,261.668 227.880,262.198 227.000 C 262.728 226.120,263.386 224.950,263.661 224.400 C 263.936 223.850,264.518 222.875,264.955 222.234 C 265.392 221.592,266.120 220.383,266.574 219.547 C 267.028 218.711,268.300 216.470,269.400 214.569 C 270.500 212.667,271.777 210.456,272.237 209.656 C 272.697 208.855,274.025 206.580,275.189 204.600 C 277.081 201.380,278.027 199.714,279.846 196.400 C 280.577 195.069,280.514 193.284,279.681 191.728 C 278.730 189.952,275.432 184.195,273.994 181.800 C 273.334 180.700,272.338 178.990,271.782 178.000 C 271.226 177.010,270.340 175.480,269.813 174.600 C 269.287 173.720,268.510 172.370,268.087 171.600 C 265.786 167.410,263.424 163.327,262.995 162.800 C 262.726 162.470,261.743 160.760,260.810 159.000 C 259.877 157.240,258.974 155.710,258.804 155.600 C 258.634 155.490,258.158 154.738,257.747 153.928 C 257.336 153.118,256.100 150.886,255.000 148.968 C 251.661 143.145,250.405 140.639,250.403 139.796 C 250.401 139.353,249.815 138.315,249.100 137.488 L 247.800 135.985 215.800 136.156 C 198.200 136.250,183.268 136.367,182.618 136.417 C 181.779 136.480,181.256 136.246,180.818 135.612 C 180.478 135.120,179.615 134.100,178.900 133.345 C 178.185 132.591,177.600 131.787,177.600 131.560 C 177.600 131.333,177.150 130.557,176.600 129.836 C 176.050 129.114,175.600 128.351,175.600 128.140 C 175.600 127.928,175.159 127.158,174.621 126.428 C 174.082 125.699,173.528 124.584,173.389 123.951 C 173.250 123.318,172.961 122.800,172.746 122.800 C 172.531 122.800,172.007 122.014,171.582 121.053 C 171.157 120.092,170.537 119.080,170.205 118.804 C 169.872 118.528,169.600 117.986,169.600 117.600 C 169.600 117.214,169.305 116.653,168.945 116.355 C 168.585 116.056,167.942 115.089,167.516 114.206 C 166.197 111.474,164.863 109.133,164.218 108.419 C 163.878 108.044,163.600 107.561,163.600 107.346 C 163.600 107.131,163.150 106.345,162.600 105.600 C 162.050 104.855,161.600 103.942,161.600 103.571 C 161.600 103.201,161.301 102.651,160.935 102.349 C 160.569 102.047,159.927 101.080,159.507 100.200 C 158.751 98.617,157.227 95.960,156.408 94.800 C 155.860 94.024,154.619 91.767,153.792 90.042 C 153.434 89.295,152.895 88.438,152.595 88.138 C 152.294 87.837,151.822 86.963,151.544 86.196 C 151.266 85.428,150.889 84.800,150.705 84.800 C 150.522 84.800,150.017 83.973,149.584 82.963 C 148.025 79.327,150.945 79.628,117.161 79.613 C 85.217 79.599,86.193 79.656,83.900 77.679 C 83.384 77.235,83.200 77.210,83.200 77.584 " stroke="none" fill="#31a4a6" fill-rule="evenodd"></path><path id="path2" d="M79.467 77.467 C 79.320 77.613,79.200 78.513,79.200 79.467 C 79.200 81.049,79.113 81.200,78.200 81.200 C 77.267 81.200,77.200 81.333,77.200 83.200 C 77.200 85.067,77.133 85.200,76.200 85.200 C 75.446 85.200,75.200 85.410,75.200 86.054 C 75.200 86.524,74.750 87.325,74.200 87.835 C 73.555 88.433,73.200 89.194,73.200 89.981 C 73.200 91.015,73.048 91.200,72.200 91.200 C 71.267 91.200,71.200 91.333,71.200 93.200 C 71.200 95.067,71.133 95.200,70.200 95.200 C 69.267 95.200,69.200 95.333,69.200 97.200 C 69.200 99.067,69.133 99.200,68.200 99.200 C 67.428 99.200,67.200 99.406,67.200 100.105 C 67.200 100.660,66.852 101.163,66.300 101.405 C 65.605 101.710,65.372 102.187,65.277 103.500 C 65.168 105.002,65.040 105.200,64.177 105.200 C 63.271 105.200,63.200 105.346,63.200 107.200 C 63.200 109.067,63.133 109.200,62.200 109.200 C 61.328 109.200,61.200 109.375,61.200 110.571 C 61.200 111.557,60.919 112.163,60.200 112.729 C 59.650 113.161,59.200 113.882,59.200 114.330 C 59.200 114.870,58.897 115.187,58.300 115.272 C 57.532 115.381,57.382 115.679,57.278 117.300 C 57.168 119.015,57.061 119.200,56.178 119.200 C 55.271 119.200,55.200 119.345,55.200 121.200 C 55.200 123.067,55.133 123.200,54.200 123.200 C 53.405 123.200,53.200 123.401,53.200 124.182 C 53.200 124.722,52.750 125.614,52.200 126.164 C 51.650 126.714,51.200 127.622,51.200 128.182 C 51.200 129.001,51.005 129.200,50.200 129.200 C 49.267 129.200,49.200 129.333,49.200 131.200 C 49.200 133.067,49.133 133.200,48.200 133.200 C 46.667 133.200,46.667 138.744,48.200 140.165 C 48.750 140.675,49.200 141.476,49.200 141.946 C 49.200 142.590,49.446 142.800,50.200 142.800 C 51.133 142.800,51.200 142.933,51.200 144.800 C 51.200 146.655,51.271 146.800,52.178 146.800 C 53.061 146.800,53.168 146.985,53.278 148.700 C 53.382 150.321,53.532 150.619,54.300 150.728 C 54.897 150.813,55.200 151.130,55.200 151.670 C 55.200 152.118,55.650 152.839,56.200 153.271 C 56.919 153.837,57.200 154.443,57.200 155.429 C 57.200 156.625,57.328 156.800,58.200 156.800 C 59.133 156.800,59.200 156.933,59.200 158.800 C 59.200 160.655,59.271 160.800,60.178 160.800 C 61.061 160.800,61.168 160.985,61.278 162.700 C 61.382 164.321,61.532 164.619,62.300 164.728 C 62.951 164.820,63.200 165.124,63.200 165.828 C 63.200 166.598,63.408 166.800,64.200 166.800 C 65.133 166.800,65.200 166.933,65.200 168.800 C 65.200 170.667,65.267 170.800,66.200 170.800 C 67.133 170.800,67.200 170.933,67.200 172.800 C 67.200 174.667,67.267 174.800,68.200 174.800 C 69.072 174.800,69.200 174.975,69.200 176.171 C 69.200 177.473,70.022 178.800,70.829 178.800 C 71.033 178.800,71.200 179.250,71.200 179.800 C 71.200 180.600,71.400 180.800,72.200 180.800 C 73.133 180.800,73.200 180.933,73.200 182.800 C 73.200 184.667,73.267 184.800,74.200 184.800 C 75.133 184.800,75.200 184.933,75.200 186.800 C 75.200 188.667,75.267 188.800,76.200 188.800 C 77.048 188.800,77.200 188.985,77.200 190.019 C 77.200 190.806,77.555 191.567,78.200 192.165 C 78.750 192.675,79.200 193.476,79.200 193.946 L 79.200 194.800 113.200 194.800 L 147.200 194.800 147.200 195.800 C 147.200 196.600,147.400 196.800,148.200 196.800 C 149.133 196.800,149.200 196.933,149.200 198.800 C 149.200 200.655,149.271 200.800,150.178 200.800 C 151.061 200.800,151.168 200.985,151.278 202.700 C 151.382 204.321,151.532 204.619,152.300 204.728 C 152.897 204.813,153.200 205.130,153.200 205.670 C 153.200 206.118,153.650 206.839,154.200 207.271 C 154.919 207.837,155.200 208.443,155.200 209.429 C 155.200 210.625,155.328 210.800,156.200 210.800 C 157.133 210.800,157.200 210.933,157.200 212.800 C 157.200 214.655,157.271 214.800,158.178 214.800 C 159.061 214.800,159.168 214.985,159.278 216.700 C 159.382 218.321,159.532 218.619,160.300 218.728 C 160.897 218.813,161.200 219.130,161.200 219.670 C 161.200 220.118,161.650 220.839,162.200 221.271 C 162.919 221.837,163.200 222.443,163.200 223.429 C 163.200 224.625,163.328 224.800,164.200 224.800 C 165.133 224.800,165.200 224.933,165.200 226.800 C 165.200 228.654,165.271 228.800,166.177 228.800 C 167.040 228.800,167.168 228.998,167.277 230.500 C 167.372 231.813,167.605 232.290,168.300 232.595 C 168.852 232.837,169.200 233.340,169.200 233.895 C 169.200 234.594,169.428 234.800,170.200 234.800 C 171.133 234.800,171.200 234.933,171.200 236.800 C 171.200 238.667,171.267 238.800,172.200 238.800 C 173.133 238.800,173.200 238.933,173.200 240.800 C 173.200 242.667,173.267 242.800,174.200 242.800 C 175.048 242.800,175.200 242.985,175.200 244.019 C 175.200 244.806,175.555 245.567,176.200 246.165 C 176.750 246.675,177.200 247.476,177.200 247.946 C 177.200 248.590,177.446 248.800,178.200 248.800 C 179.133 248.800,179.200 248.933,179.200 250.802 L 179.200 252.804 214.300 252.702 L 249.400 252.600 249.516 249.785 C 249.645 246.649,247.697 241.694,245.253 238.941 C 245.028 238.688,244.561 237.878,244.215 237.141 C 243.868 236.403,242.968 234.810,242.214 233.600 C 241.459 232.390,240.555 230.860,240.203 230.200 C 239.852 229.540,239.077 228.153,238.482 227.118 C 237.887 226.082,236.515 223.652,235.434 221.718 C 234.353 219.783,233.339 218.110,233.179 218.000 C 233.020 217.890,232.597 217.170,232.240 216.400 C 231.883 215.630,230.608 213.380,229.408 211.400 C 228.208 209.420,226.857 207.080,226.405 206.200 C 225.954 205.320,224.609 202.980,223.417 201.000 C 222.226 199.020,220.776 196.455,220.196 195.300 C 219.616 194.145,218.965 193.200,218.748 193.200 C 218.532 193.200,218.635 192.800,218.977 192.311 C 219.320 191.822,219.600 191.112,219.600 190.734 C 219.600 190.355,219.931 189.810,220.335 189.523 C 220.740 189.235,221.194 188.500,221.346 187.890 C 221.497 187.279,221.955 186.445,222.364 186.036 C 222.773 185.627,223.309 184.681,223.556 183.933 C 223.803 183.186,224.364 182.266,224.802 181.891 C 225.241 181.515,225.600 180.874,225.600 180.466 C 225.600 180.058,225.953 179.404,226.385 179.014 C 226.817 178.623,227.365 177.711,227.604 176.987 C 227.843 176.263,228.283 175.577,228.582 175.462 C 228.880 175.348,229.243 174.716,229.387 174.059 C 229.532 173.401,230.089 172.390,230.625 171.811 C 231.161 171.232,231.600 170.436,231.600 170.041 C 231.600 169.647,231.953 169.004,232.385 168.614 C 232.817 168.223,233.365 167.311,233.604 166.587 C 233.843 165.863,234.283 165.177,234.582 165.062 C 234.880 164.948,235.242 164.321,235.385 163.669 C 235.528 163.016,235.985 162.176,236.400 161.800 C 236.815 161.424,237.266 160.608,237.403 159.986 C 237.540 159.364,237.934 158.620,238.280 158.333 C 238.626 158.046,239.256 157.089,239.679 156.206 C 240.725 154.023,241.795 152.129,242.378 151.426 C 242.924 150.769,244.355 148.200,245.516 145.794 C 245.942 144.911,246.585 143.944,246.945 143.645 C 247.305 143.347,247.600 142.800,247.600 142.431 C 247.600 142.062,247.767 141.589,247.971 141.380 C 248.200 141.146,248.131 140.501,247.790 139.700 L 247.239 138.400 217.069 138.400 C 200.476 138.400,186.354 138.509,185.687 138.643 L 184.473 138.885 185.633 140.743 C 186.271 141.764,187.130 143.323,187.542 144.206 C 187.954 145.089,188.585 146.056,188.945 146.355 C 189.305 146.653,189.600 147.174,189.600 147.511 C 189.600 147.849,190.024 148.681,190.542 149.362 C 191.061 150.043,191.626 151.047,191.799 151.592 C 191.971 152.138,192.419 153.038,192.794 153.592 C 194.856 156.643,195.600 157.889,195.600 158.291 C 195.600 158.537,196.009 159.247,196.509 159.869 C 197.009 160.491,197.738 161.630,198.129 162.400 C 198.520 163.170,199.278 164.520,199.814 165.400 C 200.350 166.280,201.162 167.720,201.619 168.600 C 202.884 171.039,203.794 172.630,204.634 173.872 C 205.054 174.492,205.633 175.450,205.921 176.000 C 206.208 176.550,206.929 177.825,207.522 178.833 C 208.115 179.842,208.992 181.384,209.471 182.260 C 209.950 183.136,210.625 184.089,210.971 184.376 C 211.317 184.663,211.601 185.191,211.601 185.549 C 211.602 185.907,211.998 186.830,212.481 187.600 C 213.317 188.933,215.200 192.700,215.200 193.040 C 215.200 193.128,200.903 193.200,183.429 193.200 C 148.809 193.200,149.963 193.276,150.563 191.040 C 150.688 190.578,150.792 189.885,150.795 189.500 C 150.798 189.068,151.107 188.800,151.600 188.800 C 152.191 188.800,152.400 188.533,152.400 187.781 C 152.400 187.215,152.833 186.361,153.372 185.861 C 153.907 185.365,154.476 184.429,154.637 183.780 C 154.798 183.131,155.253 182.370,155.649 182.089 C 156.044 181.807,156.482 180.969,156.622 180.225 C 156.776 179.403,157.157 178.800,157.594 178.686 C 158.072 178.561,158.406 177.949,158.589 176.865 C 158.776 175.761,159.113 175.155,159.632 174.990 C 160.055 174.856,160.400 174.413,160.400 174.006 C 160.400 172.847,160.835 172.000,161.429 172.000 C 162.118 172.000,162.800 170.744,162.800 169.473 C 162.800 168.834,163.075 168.421,163.589 168.287 C 164.145 168.142,164.453 167.608,164.634 166.475 C 164.801 165.432,165.134 164.806,165.585 164.688 C 165.985 164.583,166.390 163.950,166.542 163.189 C 166.687 162.464,167.144 161.634,167.557 161.345 C 167.970 161.056,168.432 160.329,168.582 159.730 C 168.732 159.131,169.293 158.235,169.828 157.739 C 170.362 157.244,170.800 156.386,170.800 155.833 C 170.800 155.239,171.126 154.654,171.597 154.401 C 172.097 154.134,172.489 153.383,172.648 152.387 C 172.839 151.193,173.088 150.800,173.651 150.800 C 174.187 150.800,174.400 150.510,174.400 149.781 C 174.400 149.215,174.833 148.361,175.372 147.861 C 175.907 147.365,176.470 146.458,176.624 145.846 C 176.778 145.234,177.330 144.306,177.852 143.785 C 178.373 143.263,178.800 142.378,178.800 141.818 C 178.800 141.198,179.025 140.800,179.376 140.800 C 180.988 140.800,181.173 137.346,179.649 135.700 L 178.445 134.400 148.873 134.400 C 113.759 134.400,117.293 134.805,114.893 130.507 C 113.852 128.643,112.640 126.517,112.200 125.783 C 111.760 125.049,110.410 122.707,109.200 120.578 C 107.990 118.450,106.605 116.054,106.121 115.254 C 105.638 114.454,104.828 113.060,104.321 112.155 C 102.704 109.268,101.197 106.643,100.286 105.124 C 99.799 104.313,98.410 101.907,97.200 99.778 C 95.990 97.650,94.640 95.310,94.200 94.578 C 93.760 93.847,92.449 91.573,91.287 89.524 C 87.254 82.418,85.809 80.229,84.647 79.467 C 84.104 79.112,83.545 78.457,83.403 78.011 C 83.146 77.200,80.148 76.786,79.467 77.467 M328.800 152.600 C 328.800 152.930,329.092 153.200,329.449 153.200 C 329.980 153.200,330.008 153.091,329.600 152.600 C 329.326 152.270,329.034 152.000,328.951 152.000 C 328.868 152.000,328.800 152.270,328.800 152.600 M322.800 245.449 C 322.800 245.980,322.909 246.008,323.400 245.600 C 323.730 245.326,324.000 245.034,324.000 244.951 C 324.000 244.868,323.730 244.800,323.400 244.800 C 323.070 244.800,322.800 245.092,322.800 245.449 " stroke="none" fill="#098eed" fill-rule="evenodd"></path><path id="path3" d="M116.647 19.677 C 116.834 19.979,116.710 20.051,116.286 19.888 C 115.811 19.706,115.706 19.811,115.888 20.286 C 116.071 20.762,115.987 20.845,115.568 20.601 C 115.256 20.420,115.129 20.414,115.286 20.588 C 115.683 21.028,114.850 22.478,114.370 22.181 C 114.156 22.049,114.014 22.089,114.055 22.270 C 114.096 22.452,113.920 23.107,113.665 23.726 C 113.409 24.345,113.200 25.020,113.200 25.226 C 113.200 25.432,112.930 25.600,112.600 25.600 C 112.270 25.600,112.000 25.870,112.000 26.200 C 112.000 26.530,111.807 26.800,111.571 26.800 C 111.336 26.800,111.182 27.205,111.231 27.700 C 111.347 28.889,110.844 30.000,110.189 30.000 C 109.900 30.000,109.550 30.517,109.411 31.150 C 109.272 31.782,108.716 32.715,108.176 33.223 C 107.635 33.731,107.280 34.428,107.387 34.773 C 107.605 35.476,107.099 36.486,106.555 36.434 C 106.360 36.415,106.192 36.535,106.182 36.700 C 106.119 37.771,104.954 39.991,104.540 39.832 C 104.246 39.719,103.858 40.238,103.577 41.122 C 103.319 41.935,102.671 43.019,102.137 43.532 C 101.451 44.190,101.244 44.707,101.429 45.292 C 101.643 45.966,101.561 46.070,100.990 45.851 C 100.430 45.636,100.379 45.693,100.740 46.128 C 101.300 46.802,100.854 47.342,100.191 46.793 C 99.837 46.499,99.724 46.633,99.766 47.296 C 99.798 47.793,99.688 48.298,99.522 48.417 C 99.356 48.537,99.165 48.987,99.099 49.417 C 98.929 50.505,98.411 51.254,98.001 51.001 C 97.543 50.717,97.071 52.267,97.436 52.858 C 97.596 53.117,97.551 53.217,97.333 53.082 C 96.802 52.754,95.783 54.014,95.430 55.435 C 95.271 56.076,94.763 57.005,94.301 57.500 C 93.839 57.995,93.627 58.403,93.830 58.406 C 94.034 58.409,93.989 58.546,93.732 58.710 C 93.475 58.874,93.205 59.269,93.132 59.588 C 92.967 60.314,92.272 61.159,91.983 60.986 C 91.864 60.914,91.725 61.428,91.675 62.128 C 91.583 63.396,90.589 64.564,89.941 64.164 C 89.753 64.048,89.600 64.233,89.600 64.576 C 89.600 65.697,89.561 65.790,88.709 66.697 C 88.246 67.190,87.832 67.910,87.789 68.297 C 87.657 69.486,87.118 70.572,86.348 71.200 C 85.943 71.530,85.538 72.430,85.446 73.200 C 85.351 74.003,85.080 74.553,84.810 74.490 C 84.552 74.430,84.435 74.533,84.550 74.719 C 84.665 74.905,84.408 75.358,83.980 75.725 C 81.082 78.206,83.498 78.400,117.304 78.400 L 147.139 78.400 148.365 79.432 C 149.039 79.999,149.953 81.214,150.397 82.132 C 150.840 83.049,151.697 84.646,152.302 85.681 C 154.978 90.264,157.477 94.571,158.400 96.189 C 158.950 97.153,160.300 99.493,161.400 101.389 C 162.500 103.284,163.882 105.682,164.471 106.718 C 165.061 107.753,165.871 109.161,166.271 109.846 C 166.672 110.532,167.502 111.972,168.115 113.046 C 168.728 114.121,169.753 115.900,170.393 117.000 C 171.033 118.100,171.846 119.540,172.200 120.200 C 172.553 120.860,173.458 122.390,174.211 123.600 C 174.963 124.810,175.945 126.520,176.394 127.400 C 176.842 128.280,177.701 129.734,178.304 130.630 C 178.907 131.527,179.827 132.930,180.350 133.748 C 180.872 134.565,181.359 135.175,181.432 135.102 C 181.762 134.772,180.401 131.768,179.644 131.155 C 179.180 130.779,178.800 130.019,178.800 129.465 C 178.800 128.867,178.393 128.138,177.800 127.671 C 177.250 127.239,176.800 126.498,176.800 126.024 C 176.800 125.551,176.350 124.714,175.800 124.164 C 175.250 123.614,174.800 122.804,174.800 122.364 C 174.800 121.924,174.350 121.114,173.800 120.564 C 173.250 120.014,172.800 119.216,172.800 118.791 C 172.800 118.366,172.350 117.724,171.800 117.363 C 171.187 116.962,170.800 116.331,170.800 115.735 C 170.800 115.200,170.350 114.345,169.800 113.835 C 169.250 113.325,168.800 112.515,168.800 112.035 C 168.800 111.555,168.350 110.745,167.800 110.235 C 167.250 109.725,166.800 109.028,166.800 108.685 C 166.800 108.342,166.377 107.553,165.861 106.931 C 165.344 106.309,164.796 105.286,164.643 104.658 C 164.485 104.012,164.024 103.427,163.582 103.311 C 163.075 103.178,162.800 102.763,162.800 102.127 C 162.800 100.827,162.113 99.600,161.386 99.600 C 161.033 99.600,160.800 99.215,160.800 98.631 C 160.800 98.098,160.350 97.127,159.800 96.473 C 159.250 95.819,158.800 94.994,158.800 94.640 C 158.800 94.285,158.350 93.603,157.800 93.125 C 157.250 92.647,156.800 91.851,156.800 91.356 C 156.800 90.449,155.857 89.200,155.171 89.200 C 154.967 89.200,154.800 88.673,154.800 88.029 C 154.800 87.256,154.460 86.590,153.800 86.071 C 153.250 85.639,152.800 84.898,152.800 84.424 C 152.800 83.951,152.350 83.114,151.800 82.564 C 151.033 81.796,150.800 81.149,150.800 79.782 L 150.800 78.000 182.200 77.922 C 199.470 77.879,214.185 77.834,214.900 77.822 C 216.168 77.801,216.198 77.840,216.113 79.400 C 216.037 80.800,216.076 80.880,216.423 80.038 C 216.642 79.509,216.741 77.889,216.644 76.438 C 216.434 73.292,216.522 73.578,215.840 73.840 C 215.274 74.057,214.689 73.440,214.542 72.469 C 214.374 71.362,213.991 70.758,213.607 70.995 C 213.378 71.138,213.310 70.979,213.447 70.621 C 213.579 70.278,213.476 70.000,213.219 70.000 C 212.963 70.000,212.851 69.840,212.972 69.645 C 213.093 69.450,212.934 69.077,212.619 68.816 C 212.305 68.555,212.138 68.107,212.248 67.820 C 212.368 67.506,212.043 67.197,211.430 67.043 C 210.791 66.883,210.433 66.529,210.469 66.094 C 210.577 64.793,210.401 63.466,210.152 63.714 C 210.016 63.850,209.689 63.745,209.425 63.481 C 208.875 62.929,207.927 60.400,208.270 60.400 C 208.395 60.400,208.276 60.132,208.004 59.804 C 207.732 59.477,207.350 59.307,207.155 59.428 C 206.820 59.635,206.625 59.031,206.772 58.242 C 206.809 58.045,206.362 57.387,205.779 56.778 C 205.197 56.170,204.693 55.206,204.660 54.637 C 204.608 53.736,204.204 53.432,203.183 53.525 C 202.938 53.547,202.731 52.317,202.714 50.740 C 202.705 49.888,202.470 49.634,201.508 49.442 C 200.612 49.262,200.376 49.040,200.564 48.551 C 200.711 48.165,200.524 47.661,200.107 47.320 C 199.712 46.996,199.665 46.876,200.000 47.047 C 200.522 47.314,200.527 47.263,200.035 46.658 C 199.591 46.111,199.400 46.073,199.141 46.481 C 198.840 46.956,198.652 45.796,198.660 43.508 C 198.661 42.941,198.553 42.905,198.054 43.308 C 197.562 43.707,197.509 43.697,197.774 43.255 C 197.969 42.933,197.911 42.592,197.633 42.420 C 197.374 42.260,196.856 41.516,196.481 40.765 C 196.107 40.014,195.541 39.400,195.225 39.400 C 194.858 39.400,194.640 38.966,194.625 38.200 C 194.595 36.743,194.146 35.969,193.478 36.225 C 192.804 36.484,191.833 33.951,192.458 33.564 C 192.736 33.393,192.576 33.183,192.036 33.012 C 191.490 32.838,191.078 32.289,190.927 31.533 C 190.783 30.817,190.314 30.161,189.765 29.911 C 189.259 29.680,188.746 29.237,188.627 28.925 C 188.484 28.552,188.579 28.460,188.905 28.656 C 189.297 28.892,189.297 28.826,188.903 28.340 C 188.630 28.003,188.521 27.612,188.661 27.473 C 188.800 27.333,188.639 27.113,188.301 26.984 C 187.929 26.840,187.768 26.445,187.891 25.974 C 188.029 25.444,187.889 25.200,187.447 25.200 C 186.876 25.200,186.541 23.976,186.759 22.681 C 186.788 22.506,186.280 22.177,185.630 21.950 C 184.777 21.653,184.413 21.240,184.324 20.469 L 184.200 19.400 150.282 19.309 C 124.833 19.240,116.434 19.332,116.647 19.677 M186.555 131.412 C 186.190 131.969,185.964 132.498,186.053 132.587 C 186.142 132.676,186.518 132.220,186.889 131.574 C 187.714 130.136,187.469 130.017,186.555 131.412 " stroke="none" fill="#5bb33d" fill-rule="evenodd"></path><path id="path4" d="M115.275 20.102 C 115.375 20.822,115.182 21.025,114.300 21.127 C 113.495 21.219,113.200 21.475,113.200 22.081 C 113.200 22.536,112.750 23.325,112.200 23.835 C 111.218 24.745,110.802 26.800,111.600 26.800 C 111.820 26.800,112.000 26.530,112.000 26.200 C 112.000 25.870,112.256 25.600,112.568 25.600 C 112.881 25.600,113.255 25.058,113.401 24.397 C 113.546 23.735,113.821 23.289,114.012 23.407 C 114.202 23.525,114.287 23.252,114.200 22.800 C 114.113 22.348,114.193 22.072,114.377 22.186 C 114.822 22.461,116.100 20.486,115.796 19.993 C 115.665 19.782,115.820 19.709,116.139 19.832 C 116.458 19.954,116.814 19.900,116.931 19.712 C 117.047 19.524,116.694 19.333,116.146 19.287 C 115.325 19.219,115.172 19.362,115.275 20.102 M184.311 20.375 C 184.566 22.110,186.800 22.903,186.800 21.259 C 186.800 19.942,186.147 19.200,184.989 19.200 C 184.276 19.200,184.166 19.389,184.311 20.375 M186.727 24.081 C 186.823 24.737,187.139 25.200,187.492 25.200 C 187.890 25.200,188.025 25.462,187.891 25.974 C 187.768 26.445,187.929 26.840,188.301 26.984 C 188.639 27.113,188.800 27.333,188.661 27.473 C 188.521 27.612,188.630 28.003,188.903 28.340 C 189.297 28.826,189.297 28.892,188.905 28.656 C 188.579 28.460,188.484 28.552,188.627 28.925 C 189.244 30.535,190.800 30.439,190.800 28.791 C 190.800 27.361,190.699 27.200,189.800 27.200 C 188.744 27.200,188.684 27.054,188.788 24.749 C 188.848 23.439,188.743 23.282,187.708 23.131 C 186.651 22.975,186.575 23.049,186.727 24.081 M109.200 29.200 C 109.200 31.067,109.133 31.200,108.200 31.200 C 107.315 31.200,107.200 31.369,107.200 32.670 L 107.200 34.139 108.179 33.219 C 108.718 32.714,109.272 31.782,109.411 31.150 C 109.550 30.517,109.854 30.000,110.088 30.000 C 110.764 30.000,111.507 28.731,111.298 27.932 C 110.818 26.097,109.200 27.075,109.200 29.200 M190.800 31.571 C 190.800 32.052,191.948 33.200,192.429 33.200 C 192.633 33.200,192.800 32.750,192.800 32.200 C 192.800 31.400,192.600 31.200,191.800 31.200 C 191.250 31.200,190.800 31.367,190.800 31.571 M192.505 33.527 C 191.863 33.934,192.751 36.504,193.442 36.239 C 193.695 36.142,194.104 36.264,194.351 36.511 C 194.683 36.843,194.800 36.595,194.800 35.560 C 194.800 33.603,193.791 32.710,192.505 33.527 M106.300 35.118 C 105.475 35.219,105.200 35.473,105.200 36.132 C 105.200 36.659,104.840 37.168,104.300 37.405 C 103.605 37.710,103.372 38.187,103.277 39.500 C 103.168 41.002,103.040 41.200,102.177 41.200 C 101.302 41.200,101.200 41.369,101.200 42.816 L 101.200 44.432 102.154 43.516 C 102.678 43.012,103.319 41.935,103.577 41.122 C 103.858 40.238,104.246 39.719,104.540 39.832 C 104.954 39.991,106.119 37.771,106.182 36.700 C 106.192 36.535,106.380 36.387,106.600 36.372 C 106.995 36.344,107.802 35.214,107.537 35.061 C 107.461 35.018,106.905 35.043,106.300 35.118 M194.622 38.300 C 194.648 38.905,194.894 39.400,195.167 39.400 C 195.441 39.400,195.920 39.749,196.232 40.176 C 196.752 40.888,196.800 40.795,196.800 39.076 C 196.800 37.291,196.746 37.200,195.687 37.200 C 194.727 37.200,194.580 37.352,194.622 38.300 M196.800 41.613 C 196.800 41.839,197.080 42.133,197.423 42.264 C 197.766 42.396,197.948 42.759,197.828 43.072 C 197.707 43.385,197.767 43.544,197.959 43.425 C 198.354 43.181,198.783 44.496,198.801 46.000 C 198.809 46.680,198.918 46.834,199.141 46.481 C 199.400 46.073,199.591 46.111,200.035 46.658 C 200.527 47.263,200.522 47.314,200.000 47.047 C 199.670 46.879,199.733 47.012,200.140 47.344 C 200.554 47.681,200.752 48.155,200.589 48.418 C 200.253 48.962,201.067 49.585,202.127 49.594 C 203.275 49.604,202.878 47.439,201.700 47.272 C 201.043 47.179,200.800 46.876,200.800 46.154 C 200.800 45.609,200.312 44.678,199.713 44.082 C 199.040 43.412,198.670 42.657,198.742 42.100 C 198.835 41.370,198.663 41.200,197.829 41.200 C 197.263 41.200,196.800 41.386,196.800 41.613 M99.200 46.800 C 99.200 47.680,99.355 48.400,99.545 48.400 C 99.735 48.400,99.840 47.940,99.778 47.378 C 99.692 46.595,99.783 46.454,100.170 46.775 C 100.848 47.338,101.310 46.814,100.740 46.128 C 100.382 45.696,100.425 45.635,100.943 45.834 C 101.309 45.974,101.600 45.889,101.600 45.643 C 101.600 45.399,101.060 45.200,100.400 45.200 C 99.267 45.200,99.200 45.289,99.200 46.800 M97.200 50.172 C 97.200 50.876,96.951 51.180,96.300 51.272 C 95.532 51.381,95.382 51.679,95.278 53.300 C 95.168 55.015,95.061 55.200,94.178 55.200 C 93.286 55.200,93.200 55.357,93.200 57.000 C 93.200 58.000,93.388 58.800,93.624 58.800 C 93.857 58.800,93.951 58.644,93.833 58.453 C 93.715 58.263,93.964 57.794,94.387 57.412 C 94.809 57.030,95.273 56.176,95.419 55.515 C 95.733 54.082,96.786 52.744,97.333 53.082 C 97.551 53.217,97.596 53.117,97.436 52.858 C 97.071 52.267,97.543 50.717,98.001 51.001 C 98.190 51.117,98.487 50.985,98.661 50.707 C 99.286 49.706,99.120 49.200,98.165 49.200 C 97.410 49.200,97.200 49.411,97.200 50.172 M202.784 52.159 C 202.985 52.686,203.079 53.188,202.993 53.273 C 202.908 53.359,203.279 53.465,203.819 53.510 C 204.660 53.579,204.800 53.420,204.800 52.396 C 204.800 51.336,204.665 51.200,203.610 51.200 C 202.519 51.200,202.450 51.280,202.784 52.159 M204.800 55.469 C 204.800 55.616,205.110 56.111,205.489 56.569 C 205.869 57.026,205.923 57.175,205.609 56.900 C 205.296 56.625,204.851 56.405,204.620 56.412 C 204.108 56.427,205.637 57.374,206.200 57.391 C 206.420 57.397,206.624 57.672,206.654 58.001 C 206.683 58.330,206.728 58.836,206.754 59.124 C 206.779 59.412,206.960 59.549,207.155 59.428 C 207.350 59.307,207.732 59.477,208.004 59.804 C 208.276 60.132,208.395 60.400,208.270 60.400 C 207.927 60.400,208.875 62.929,209.425 63.481 C 209.689 63.745,210.016 63.850,210.152 63.714 C 210.401 63.466,210.577 64.793,210.469 66.094 C 210.433 66.529,210.791 66.883,211.430 67.043 C 212.061 67.202,212.369 67.503,212.241 67.837 C 212.128 68.132,212.207 68.481,212.417 68.611 C 212.639 68.748,212.800 68.082,212.800 67.024 C 212.800 65.345,212.720 65.200,211.800 65.200 C 210.867 65.200,210.800 65.067,210.800 63.200 C 210.800 61.333,210.733 61.200,209.800 61.200 C 208.952 61.200,208.800 61.015,208.800 59.981 C 208.800 59.194,208.445 58.433,207.800 57.835 C 207.250 57.325,206.800 56.524,206.800 56.054 C 206.800 55.410,206.554 55.200,205.800 55.200 C 205.250 55.200,204.800 55.321,204.800 55.469 M91.200 60.182 C 91.200 60.722,90.750 61.614,90.200 62.164 C 89.650 62.714,89.200 63.609,89.200 64.154 C 89.200 64.876,88.957 65.179,88.300 65.272 C 87.532 65.381,87.382 65.679,87.278 67.300 C 87.168 69.015,87.061 69.200,86.178 69.200 C 85.271 69.200,85.200 69.345,85.200 71.200 C 85.200 73.067,85.133 73.200,84.200 73.200 C 83.300 73.200,83.200 73.360,83.200 74.796 C 83.200 76.340,83.226 76.370,83.980 75.725 C 84.408 75.358,84.665 74.905,84.550 74.719 C 84.435 74.533,84.552 74.430,84.810 74.490 C 85.080 74.553,85.351 74.003,85.446 73.200 C 85.538 72.430,85.943 71.530,86.348 71.200 C 87.118 70.572,87.657 69.486,87.789 68.297 C 87.832 67.910,88.302 67.130,88.833 66.564 C 89.365 65.999,89.755 65.460,89.700 65.368 C 89.480 64.999,89.617 63.883,89.853 64.119 C 90.343 64.609,91.600 63.560,91.600 62.661 C 91.600 62.161,91.915 61.395,92.300 60.960 C 93.354 59.769,93.322 59.200,92.200 59.200 C 91.405 59.200,91.200 59.401,91.200 60.182 M213.000 69.600 C 212.864 69.820,212.963 70.000,213.219 70.000 C 213.476 70.000,213.579 70.278,213.447 70.621 C 213.310 70.979,213.378 71.138,213.607 70.995 C 213.991 70.758,214.374 71.362,214.542 72.469 C 214.687 73.425,215.271 74.059,215.815 73.850 C 216.108 73.737,216.443 73.860,216.560 74.122 C 216.676 74.385,216.733 73.974,216.686 73.209 C 216.622 72.173,216.345 71.691,215.600 71.320 C 214.934 70.988,214.642 70.551,214.725 70.011 C 214.859 69.144,213.484 68.817,213.000 69.600 M216.596 76.080 C 216.645 76.765,216.943 77.033,217.763 77.130 C 218.714 77.242,218.846 77.133,218.732 76.330 C 218.541 74.981,216.501 74.742,216.596 76.080 M182.300 77.891 L 150.800 78.005 150.800 79.784 C 150.800 81.149,151.033 81.797,151.800 82.564 C 152.350 83.114,152.800 83.951,152.800 84.424 C 152.800 84.898,153.250 85.639,153.800 86.071 C 154.460 86.590,154.800 87.256,154.800 88.029 C 154.800 88.673,154.967 89.200,155.171 89.200 C 155.857 89.200,156.800 90.449,156.800 91.356 C 156.800 91.851,157.250 92.647,157.800 93.125 C 158.350 93.603,158.800 94.285,158.800 94.640 C 158.800 94.994,159.250 95.819,159.800 96.473 C 160.350 97.127,160.800 98.098,160.800 98.631 C 160.800 99.215,161.033 99.600,161.386 99.600 C 162.113 99.600,162.800 100.827,162.800 102.127 C 162.800 102.763,163.075 103.178,163.582 103.311 C 164.024 103.427,164.485 104.012,164.643 104.658 C 164.796 105.286,165.344 106.309,165.861 106.931 C 166.377 107.553,166.800 108.342,166.800 108.685 C 166.800 109.028,167.250 109.725,167.800 110.235 C 168.350 110.745,168.800 111.555,168.800 112.035 C 168.800 112.515,169.250 113.325,169.800 113.835 C 170.350 114.345,170.800 115.200,170.800 115.735 C 170.800 116.331,171.187 116.962,171.800 117.363 C 172.350 117.724,172.800 118.366,172.800 118.791 C 172.800 119.216,173.250 120.014,173.800 120.564 C 174.350 121.114,174.800 121.924,174.800 122.364 C 174.800 122.804,175.250 123.614,175.800 124.164 C 176.350 124.714,176.800 125.551,176.800 126.024 C 176.800 126.498,177.250 127.239,177.800 127.671 C 178.397 128.141,178.800 128.867,178.800 129.471 C 178.800 130.076,179.203 130.802,179.800 131.271 C 180.350 131.704,180.800 132.307,180.800 132.610 C 180.800 136.235,184.330 136.278,186.050 132.674 C 187.159 130.351,188.194 128.529,188.847 127.751 C 189.464 127.017,190.801 124.580,191.839 122.300 C 192.214 121.475,192.652 120.800,192.812 120.800 C 192.972 120.800,193.334 120.215,193.617 119.500 C 193.900 118.785,194.380 117.907,194.683 117.549 C 195.259 116.870,196.684 114.357,197.796 112.059 C 198.153 111.322,198.795 110.343,199.222 109.884 C 199.650 109.425,200.000 108.745,200.000 108.374 C 200.000 108.002,200.295 107.453,200.655 107.155 C 201.015 106.856,201.656 105.889,202.079 105.006 C 203.228 102.609,204.125 101.075,205.113 99.819 C 205.601 99.199,206.000 98.378,206.000 97.995 C 206.000 97.612,206.295 97.053,206.655 96.755 C 207.015 96.456,207.656 95.489,208.079 94.606 C 209.223 92.218,210.253 90.428,210.916 89.672 C 211.240 89.303,211.641 88.550,211.807 88.000 C 211.974 87.450,212.535 86.491,213.055 85.869 C 213.575 85.247,214.000 84.537,214.000 84.291 C 214.000 84.045,214.441 83.203,214.980 82.422 C 216.529 80.175,216.539 77.803,215.000 77.789 C 214.340 77.783,199.625 77.829,182.300 77.891 M285.834 79.506 C 286.073 79.668,286.492 80.160,286.764 80.600 C 287.180 81.270,287.223 81.281,287.030 80.667 C 286.904 80.264,286.800 79.769,286.800 79.567 C 286.800 79.365,286.485 79.203,286.100 79.206 C 285.674 79.210,285.570 79.327,285.834 79.506 M291.200 89.551 C 291.200 90.055,292.374 90.959,292.659 90.674 C 293.069 90.265,292.457 89.200,291.813 89.200 C 291.476 89.200,291.200 89.358,291.200 89.551 M297.200 100.353 C 297.200 100.833,297.552 101.174,298.169 101.292 C 299.101 101.470,299.115 101.442,298.523 100.539 C 297.781 99.407,297.200 99.325,297.200 100.353 M299.600 103.800 C 299.874 104.130,300.256 104.400,300.449 104.400 C 300.642 104.400,300.800 104.130,300.800 103.800 C 300.800 103.455,300.439 103.200,299.951 103.200 C 299.242 103.200,299.184 103.299,299.600 103.800 M304.806 113.438 C 304.798 114.041,306.343 115.390,306.669 115.064 C 306.814 114.919,306.723 114.800,306.467 114.800 C 306.210 114.800,306.045 114.665,306.100 114.500 C 306.155 114.335,306.040 114.170,305.845 114.134 C 305.649 114.098,305.337 113.828,305.151 113.534 C 304.962 113.236,304.810 113.194,304.806 113.438 M307.600 117.600 C 308.376 118.101,308.800 118.101,308.800 117.600 C 308.800 117.380,308.395 117.203,307.900 117.206 C 307.172 117.211,307.115 117.286,307.600 117.600 M312.864 127.821 C 313.028 128.656,314.240 129.493,314.667 129.067 C 315.093 128.640,314.256 127.428,313.421 127.264 C 312.942 127.170,312.770 127.342,312.864 127.821 M323.060 141.811 C 323.394 142.682,324.800 143.395,324.800 142.694 C 324.800 142.018,323.996 141.200,323.333 141.200 C 323.042 141.200,322.925 141.461,323.060 141.811 M325.600 145.600 C 326.376 146.101,326.800 146.101,326.800 145.600 C 326.800 145.380,326.395 145.203,325.900 145.206 C 325.172 145.211,325.115 145.286,325.600 145.600 M331.500 156.078 C 332.425 157.003,333.062 156.860,332.662 155.817 C 332.532 155.478,332.019 155.200,331.524 155.200 L 330.622 155.200 331.500 156.078 M336.800 166.139 C 336.800 166.859,337.062 167.157,337.823 167.302 C 338.601 167.451,338.793 167.358,338.623 166.916 C 338.500 166.596,338.400 166.266,338.400 166.181 C 338.400 166.097,338.040 165.835,337.600 165.600 C 336.902 165.227,336.800 165.296,336.800 166.139 M338.800 169.639 C 338.800 169.911,338.920 170.013,339.068 169.866 C 339.215 169.719,339.686 169.914,340.114 170.299 C 340.861 170.971,340.887 170.967,340.742 170.200 C 340.577 169.324,338.800 168.810,338.800 169.639 M344.864 179.821 C 345.028 180.656,346.240 181.493,346.667 181.067 C 347.093 180.640,346.256 179.428,345.421 179.264 C 344.942 179.170,344.770 179.342,344.864 179.821 M350.800 190.553 C 350.800 190.858,351.177 191.205,351.637 191.326 C 352.440 191.536,352.445 191.513,351.775 190.772 C 350.943 189.854,350.800 189.821,350.800 190.553 M347.462 203.531 C 346.561 204.528,346.631 204.880,347.700 204.728 C 348.278 204.646,348.646 204.278,348.728 203.700 C 348.883 202.611,348.358 202.541,347.462 203.531 M339.280 217.280 C 338.644 217.916,338.668 218.800,339.320 218.800 C 339.606 218.800,340.056 218.584,340.320 218.320 C 340.956 217.684,340.932 216.800,340.280 216.800 C 339.994 216.800,339.544 217.016,339.280 217.280 M333.784 228.027 C 333.639 228.261,333.616 228.549,333.733 228.667 C 334.020 228.953,334.800 228.448,334.800 227.976 C 334.800 227.465,334.109 227.499,333.784 228.027 M330.800 231.814 C 330.800 232.683,330.908 232.770,331.553 232.425 C 332.796 231.760,332.934 230.800,331.787 230.800 C 330.997 230.800,330.800 231.002,330.800 231.814 M325.592 241.810 C 325.314 242.145,325.194 242.527,325.326 242.659 C 325.735 243.069,326.800 242.457,326.800 241.813 C 326.800 241.029,326.241 241.028,325.592 241.810 M175.200 287.200 L 175.200 297.200 174.000 297.200 C 172.987 297.200,172.800 297.044,172.800 296.200 L 172.800 295.200 168.158 295.200 C 163.682 295.200,163.487 295.236,162.729 296.200 C 162.163 296.919,161.557 297.200,160.571 297.200 C 159.375 297.200,159.200 297.328,159.200 298.200 C 159.200 299.000,159.000 299.200,158.200 299.200 C 157.400 299.200,157.200 299.400,157.200 300.200 C 157.200 301.000,157.000 301.200,156.200 301.200 C 155.222 301.200,155.200 301.267,155.200 304.200 C 155.200 307.133,155.178 307.200,154.200 307.200 L 153.200 307.200 153.200 329.000 L 153.200 350.800 154.182 350.800 C 155.125 350.800,155.170 350.919,155.282 353.700 C 155.390 356.361,155.474 356.611,156.300 356.728 C 156.951 356.820,157.200 357.124,157.200 357.828 C 157.200 358.598,157.408 358.800,158.200 358.800 C 159.000 358.800,159.200 359.000,159.200 359.800 C 159.200 360.672,159.375 360.800,160.571 360.800 C 161.557 360.800,162.163 361.081,162.729 361.800 C 163.490 362.769,163.667 362.800,168.377 362.800 C 173.048 362.800,173.274 362.761,174.165 361.800 C 174.675 361.250,175.476 360.800,175.946 360.800 C 176.610 360.800,176.801 360.555,176.806 359.700 L 176.812 358.600 177.317 359.600 C 177.821 360.597,177.840 360.600,184.311 360.710 L 190.800 360.820 190.800 319.010 L 190.800 277.200 183.000 277.200 L 175.200 277.200 175.200 287.200 M290.000 280.000 C 289.269 280.731,289.200 281.333,289.200 287.000 L 289.200 293.200 288.200 293.200 C 287.400 293.200,287.200 293.400,287.200 294.200 C 287.200 295.154,287.091 295.200,284.829 295.200 C 281.318 295.200,281.200 295.410,281.200 301.629 L 281.200 306.800 284.200 306.800 L 287.200 306.800 287.200 330.800 L 287.200 354.800 288.200 354.800 C 289.133 354.800,289.200 354.933,289.200 356.800 C 289.200 358.667,289.267 358.800,290.200 358.800 C 291.000 358.800,291.200 359.000,291.200 359.800 C 291.200 360.733,291.333 360.800,293.200 360.800 C 295.067 360.800,295.200 360.867,295.200 361.800 L 295.200 362.800 301.000 362.800 L 306.800 362.800 306.800 361.800 C 306.800 360.867,306.933 360.800,308.800 360.800 C 310.651 360.800,310.800 360.728,310.800 359.828 C 310.800 359.124,311.049 358.820,311.700 358.728 C 312.567 358.605,312.604 358.430,312.713 353.900 L 312.825 349.200 308.041 349.200 C 303.383 349.200,303.252 349.176,303.128 348.300 C 303.046 347.722,302.678 347.354,302.100 347.272 L 301.200 347.144 301.200 326.972 L 301.200 306.800 306.000 306.800 L 310.800 306.800 310.800 301.000 L 310.800 295.200 306.000 295.200 L 301.200 295.200 301.200 288.450 C 301.200 284.738,301.088 281.137,300.950 280.450 L 300.700 279.200 295.750 279.200 C 291.333 279.200,290.714 279.286,290.000 280.000 M61.200 321.000 L 61.200 360.800 76.000 360.800 L 90.800 360.800 90.800 359.800 C 90.800 358.867,90.933 358.800,92.800 358.800 C 94.667 358.800,94.800 358.733,94.800 357.800 C 94.800 357.080,95.015 356.800,95.569 356.800 C 96.565 356.800,98.800 354.565,98.800 353.569 C 98.800 353.015,99.080 352.800,99.800 352.800 C 100.723 352.800,100.800 352.657,100.800 350.946 C 100.800 349.482,101.010 348.897,101.800 348.165 L 102.800 347.238 102.800 338.219 L 102.800 329.200 101.800 329.200 C 100.846 329.200,100.800 329.091,100.800 326.829 C 100.800 324.551,100.194 323.200,99.171 323.200 C 98.967 323.200,98.800 322.750,98.800 322.200 C 98.800 321.408,98.598 321.200,97.828 321.200 C 97.125 321.200,96.820 320.951,96.728 320.303 C 96.638 319.674,96.240 319.329,95.400 319.150 L 94.200 318.895 95.500 318.847 C 96.597 318.807,96.800 318.648,96.800 317.828 C 96.800 317.124,97.049 316.820,97.700 316.728 C 98.468 316.619,98.618 316.321,98.722 314.700 C 98.832 312.985,98.939 312.800,99.822 312.800 L 100.800 312.800 100.800 302.000 L 100.800 291.200 99.822 291.200 C 98.939 291.200,98.832 291.015,98.722 289.300 C 98.618 287.679,98.468 287.381,97.700 287.272 C 97.049 287.180,96.800 286.876,96.800 286.172 C 96.800 285.272,96.651 285.200,94.800 285.200 C 92.933 285.200,92.800 285.133,92.800 284.200 C 92.800 283.246,92.691 283.200,90.429 283.200 C 88.376 283.200,87.952 283.066,87.271 282.200 L 86.485 281.200 73.842 281.200 L 61.200 281.200 61.200 321.000 M79.200 293.171 C 79.200 293.978,80.527 294.800,81.829 294.800 C 83.025 294.800,83.200 294.928,83.200 295.800 C 83.200 296.600,83.400 296.800,84.200 296.800 L 85.200 296.800 85.200 304.000 L 85.200 311.200 84.200 311.200 C 83.400 311.200,83.200 311.400,83.200 312.200 C 83.200 313.177,83.132 313.200,80.227 313.200 C 77.290 313.200,77.251 313.214,77.087 314.300 C 76.995 314.905,76.893 310.315,76.860 304.100 L 76.800 292.800 78.000 292.800 C 78.660 292.800,79.200 292.967,79.200 293.171 M109.200 326.000 L 109.200 356.800 110.200 356.800 C 111.000 356.800,111.200 357.000,111.200 357.800 C 111.200 358.600,111.400 358.800,112.200 358.800 C 113.000 358.800,113.200 359.000,113.200 359.800 C 113.200 360.554,113.410 360.800,114.054 360.800 C 114.524 360.800,115.325 361.250,115.835 361.800 C 116.726 362.761,116.952 362.800,121.623 362.800 C 126.333 362.800,126.510 362.769,127.271 361.800 C 127.837 361.081,128.443 360.800,129.429 360.800 C 130.625 360.800,130.800 360.672,130.800 359.800 C 130.800 358.956,130.987 358.800,132.000 358.800 C 133.013 358.800,133.200 358.956,133.200 359.800 L 133.200 360.800 140.000 360.800 L 146.800 360.800 146.800 328.800 C 146.800 290.439,147.993 295.137,138.291 295.291 L 131.400 295.400 131.297 321.300 L 131.194 347.200 130.197 347.200 C 129.400 347.200,129.200 347.401,129.200 348.200 C 129.200 349.145,129.080 349.200,127.000 349.200 C 124.920 349.200,124.800 349.145,124.800 348.200 C 124.800 347.400,124.600 347.200,123.800 347.200 L 122.800 347.200 122.800 321.200 L 122.800 295.200 116.000 295.200 L 109.200 295.200 109.200 326.000 M207.200 296.200 C 207.200 297.133,207.067 297.200,205.200 297.200 C 203.333 297.200,203.200 297.267,203.200 298.200 C 203.200 299.000,203.000 299.200,202.200 299.200 C 201.328 299.200,201.200 299.375,201.200 300.571 C 201.200 301.557,200.919 302.163,200.200 302.729 C 199.301 303.436,199.200 303.802,199.200 306.358 C 199.200 309.123,199.173 309.200,198.200 309.200 L 197.200 309.200 197.200 327.000 L 197.200 344.800 198.200 344.800 C 199.184 344.800,199.200 344.852,199.200 348.019 C 199.200 350.939,199.293 351.324,200.200 352.165 C 200.750 352.675,201.200 353.476,201.200 353.946 C 201.200 354.590,201.446 354.800,202.200 354.800 C 203.000 354.800,203.200 355.000,203.200 355.800 C 203.200 356.600,203.400 356.800,204.200 356.800 C 205.000 356.800,205.200 357.000,205.200 357.800 L 205.200 358.800 212.300 358.794 C 219.646 358.788,219.965 358.735,220.722 357.400 C 221.082 356.765,221.178 357.479,221.188 360.872 C 221.200 365.002,221.170 365.149,220.300 365.272 C 219.532 365.381,219.382 365.679,219.278 367.300 L 219.156 369.200 215.996 369.200 L 212.835 369.200 212.718 366.300 L 212.600 363.400 205.900 363.290 L 199.200 363.181 199.200 367.833 C 199.200 372.319,199.236 372.513,200.200 373.271 C 200.919 373.837,201.200 374.443,201.200 375.429 C 201.200 376.625,201.328 376.800,202.200 376.800 C 203.000 376.800,203.200 377.000,203.200 377.800 C 203.200 378.600,203.400 378.800,204.200 378.800 C 205.000 378.800,205.200 379.000,205.200 379.800 C 205.200 380.798,205.206 380.800,209.105 380.800 C 212.771 380.800,213.034 380.855,213.405 381.700 C 213.752 382.489,214.095 382.600,216.200 382.600 C 218.384 382.600,218.611 382.519,218.728 381.700 C 218.851 380.836,219.013 380.800,222.828 380.800 C 226.798 380.800,226.800 380.800,226.800 379.800 C 226.800 379.000,227.000 378.800,227.800 378.800 C 228.600 378.800,228.800 378.600,228.800 377.800 C 228.800 377.000,229.000 376.800,229.800 376.800 C 230.600 376.800,230.800 376.600,230.800 375.800 C 230.800 375.000,231.000 374.800,231.800 374.800 C 232.733 374.800,232.800 374.667,232.800 372.800 C 232.800 371.700,232.967 370.800,233.171 370.800 C 234.830 370.800,234.800 371.510,234.800 332.371 L 234.800 295.200 229.000 295.200 L 223.200 295.200 223.160 297.300 C 223.131 298.821,223.044 299.124,222.844 298.400 C 222.606 297.540,222.305 297.383,220.684 297.278 C 218.986 297.168,218.800 297.060,218.800 296.178 L 218.800 295.200 213.000 295.200 L 207.200 295.200 207.200 296.200 M255.200 296.190 C 255.200 297.135,255.072 297.200,253.200 297.200 C 251.333 297.200,251.200 297.267,251.200 298.200 C 251.200 299.091,251.035 299.200,249.680 299.200 C 248.844 299.200,247.944 299.416,247.680 299.680 C 247.416 299.944,247.200 300.844,247.200 301.680 C 247.200 303.035,247.091 303.200,246.200 303.200 C 245.267 303.200,245.200 303.333,245.200 305.200 C 245.200 307.067,245.133 307.200,244.200 307.200 L 243.200 307.200 243.200 313.571 C 243.200 319.905,243.194 319.946,242.191 320.736 L 241.182 321.529 241.291 329.065 C 241.399 336.537,241.408 336.601,242.300 336.728 C 243.194 336.855,243.200 336.902,243.200 343.828 L 243.200 350.800 244.200 350.800 C 245.122 350.800,245.200 350.944,245.200 352.642 C 245.200 354.119,245.394 354.637,246.175 355.252 C 246.768 355.719,247.200 356.524,247.275 357.306 C 247.364 358.219,247.632 358.638,248.199 358.745 C 248.638 358.829,249.395 359.325,249.880 359.848 C 250.604 360.630,251.158 360.800,252.981 360.800 C 255.088 360.800,255.200 360.851,255.200 361.811 L 255.200 362.821 261.100 362.711 C 266.876 362.602,267.003 362.581,267.128 361.700 C 267.246 360.867,267.459 360.800,269.984 360.800 C 272.541 360.800,272.729 360.739,272.957 359.828 C 273.110 359.221,273.540 358.807,274.101 358.728 C 274.678 358.646,275.046 358.278,275.128 357.700 C 275.207 357.144,275.533 356.800,275.981 356.800 C 276.725 356.800,277.185 355.763,277.195 354.064 C 277.198 353.549,277.605 352.801,278.100 352.400 C 279.025 351.653,279.692 342.816,279.025 340.157 L 278.785 339.200 271.992 339.200 L 265.200 339.200 265.200 343.538 C 265.200 348.801,264.937 349.200,261.469 349.200 C 259.262 349.200,259.200 349.170,259.195 348.100 C 259.185 346.216,258.751 345.200,257.953 345.200 C 257.248 345.200,257.200 344.805,257.200 339.000 L 257.200 332.800 267.776 332.800 C 275.798 332.800,278.431 332.679,278.676 332.300 C 279.069 331.694,279.356 309.295,279.002 306.900 C 278.806 305.571,278.582 305.200,277.975 305.200 C 277.397 305.200,277.199 304.920,277.195 304.100 C 277.185 302.244,276.749 301.200,275.981 301.200 C 275.533 301.200,275.207 300.856,275.128 300.300 C 275.048 299.735,274.679 299.354,274.138 299.277 C 273.613 299.202,273.179 298.772,273.030 298.177 C 272.812 297.307,272.570 297.200,270.820 297.200 C 269.087 297.200,268.841 297.094,268.728 296.300 C 268.602 295.413,268.506 295.398,261.900 295.290 L 255.200 295.181 255.200 296.190 M311.200 300.000 L 311.200 304.800 312.200 304.800 L 313.200 304.800 313.200 309.019 C 313.200 312.987,313.258 313.292,314.184 314.150 C 315.075 314.976,315.179 315.418,315.284 318.831 C 315.394 322.394,315.449 322.607,316.300 322.728 C 317.164 322.851,317.200 323.013,317.200 326.828 C 317.200 330.798,317.200 330.800,318.200 330.800 L 319.200 330.800 319.200 334.800 L 319.200 338.800 320.200 338.800 L 321.200 338.800 321.200 342.818 C 321.200 346.555,321.269 346.905,322.186 347.822 C 323.078 348.714,323.182 349.176,323.286 352.704 C 323.394 356.400,323.446 356.607,324.300 356.728 C 325.168 356.851,325.200 357.006,325.200 361.028 L 325.200 365.200 324.200 365.200 C 323.408 365.200,323.200 365.402,323.200 366.172 C 323.200 366.876,322.951 367.180,322.300 367.272 C 321.729 367.353,321.354 367.721,321.275 368.279 C 321.169 369.021,320.856 369.177,319.275 369.279 C 317.679 369.382,317.381 369.534,317.272 370.300 C 317.159 371.094,316.913 371.200,315.172 371.200 L 313.200 371.200 313.200 376.000 L 313.200 380.800 316.172 380.800 C 318.950 380.800,319.153 380.859,319.272 381.700 C 319.380 382.462,319.645 382.600,321.000 382.600 C 322.355 382.600,322.620 382.462,322.728 381.700 C 322.851 380.836,323.013 380.800,326.828 380.800 C 330.798 380.800,330.800 380.800,330.800 379.800 C 330.800 379.000,331.000 378.800,331.800 378.800 C 332.600 378.800,332.800 378.600,332.800 377.800 C 332.800 377.000,333.000 376.800,333.800 376.800 C 334.600 376.800,334.800 376.600,334.800 375.800 C 334.800 375.000,335.000 374.800,335.800 374.800 C 336.723 374.800,336.800 374.657,336.800 372.946 C 336.800 371.482,337.010 370.897,337.800 370.165 C 338.699 369.331,338.800 368.929,338.800 366.165 C 338.800 363.401,338.901 362.999,339.800 362.165 C 340.745 361.289,340.800 361.006,340.800 357.019 C 340.800 354.689,340.966 352.800,341.171 352.800 C 342.414 352.800,342.800 351.488,342.800 347.266 C 342.800 343.215,342.847 342.969,343.700 342.595 C 344.549 342.222,344.606 341.937,344.712 337.526 C 344.820 333.043,344.861 332.847,345.712 332.726 C 346.567 332.605,346.604 332.416,346.712 327.726 C 346.820 323.036,346.858 322.848,347.712 322.726 C 348.567 322.605,348.604 322.417,348.712 317.700 L 348.825 312.800 349.812 312.800 L 350.800 312.800 350.800 307.800 L 350.800 302.800 351.815 302.800 L 352.830 302.800 352.715 299.100 L 352.600 295.400 345.452 295.291 C 336.537 295.154,337.200 294.644,337.200 301.649 L 337.200 307.200 336.200 307.200 L 335.200 307.200 335.200 313.172 C 335.200 319.061,335.187 319.146,334.300 319.272 C 333.415 319.398,333.397 319.516,333.195 326.400 C 333.044 331.589,332.940 332.624,332.795 330.400 C 332.617 327.663,332.521 327.389,331.700 327.272 C 330.822 327.147,330.800 327.024,330.800 322.172 L 330.800 317.200 329.800 317.200 L 328.800 317.200 328.800 312.200 L 328.800 307.200 327.800 307.200 L 326.800 307.200 326.800 302.431 L 326.800 297.662 325.569 296.431 L 324.338 295.200 317.769 295.200 L 311.200 295.200 311.200 300.000 M173.200 307.800 C 173.200 308.600,173.400 308.800,174.200 308.800 L 175.200 308.800 175.200 329.000 L 175.200 349.200 172.000 349.200 L 168.800 349.200 168.800 329.000 L 168.800 308.800 169.800 308.800 C 170.600 308.800,170.800 308.600,170.800 307.800 C 170.800 306.956,170.987 306.800,172.000 306.800 C 173.013 306.800,173.200 306.956,173.200 307.800 M217.200 307.800 C 217.200 308.600,217.400 308.800,218.200 308.800 C 219.000 308.800,219.200 309.000,219.200 309.800 C 219.200 310.600,219.400 310.800,220.200 310.800 L 221.200 310.800 221.200 327.000 L 221.200 343.200 220.200 343.200 C 219.400 343.200,219.200 343.400,219.200 344.200 C 219.200 345.000,219.000 345.200,218.200 345.200 C 217.400 345.200,217.200 345.400,217.200 346.200 C 217.200 347.044,217.013 347.200,216.000 347.200 C 214.929 347.200,214.800 347.069,214.800 345.981 C 214.800 345.194,214.445 344.433,213.800 343.835 L 212.800 342.908 212.800 326.949 L 212.800 310.990 213.700 310.595 C 214.210 310.371,214.659 309.767,214.736 309.200 C 215.020 307.126,217.200 305.887,217.200 307.800 M262.480 308.800 C 262.981 308.800,263.200 309.104,263.200 309.800 C 263.200 310.600,263.400 310.800,264.200 310.800 L 265.200 310.800 265.200 316.000 L 265.200 321.200 261.200 321.200 L 257.200 321.200 257.200 317.047 C 257.200 313.286,257.273 312.874,257.969 312.692 C 258.529 312.546,258.812 311.990,259.014 310.646 C 259.231 309.202,259.455 308.800,260.045 308.800 C 260.460 308.800,260.800 308.584,260.800 308.320 C 260.800 307.947,260.907 307.947,261.280 308.320 C 261.544 308.584,262.084 308.800,262.480 308.800 M83.200 327.800 C 83.200 328.600,83.400 328.800,84.200 328.800 C 85.000 328.800,85.200 329.000,85.200 329.800 C 85.200 330.600,85.400 330.800,86.200 330.800 L 87.200 330.800 87.200 338.000 L 87.200 345.200 86.200 345.200 C 85.400 345.200,85.200 345.400,85.200 346.200 C 85.200 347.000,85.000 347.200,84.200 347.200 C 83.400 347.200,83.200 347.400,83.200 348.200 C 83.200 349.183,83.147 349.200,80.000 349.200 L 76.800 349.200 76.800 338.000 L 76.800 326.800 80.000 326.800 C 83.147 326.800,83.200 326.817,83.200 327.800 " stroke="none" fill="#53ac33" fill-rule="evenodd"></path></g></svg>