<?xml version="1.0" encoding="UTF-8" standalone="no"?>
<svg
   xmlns:dc="http://purl.org/dc/elements/1.1/"
   xmlns:cc="http://creativecommons.org/ns#"
   xmlns:rdf="http://www.w3.org/1999/02/22-rdf-syntax-ns#"
   xmlns:svg="http://www.w3.org/2000/svg"
   xmlns="http://www.w3.org/2000/svg"
   viewBox="0 0 1056 1056"
   height="1056"
   width="1056"
   xml:space="preserve"
   id="svg2"
   version="1.1"><metadata
     id="metadata8"><rdf:RDF><cc:Work
         rdf:about=""><dc:format>image/svg+xml</dc:format><dc:type
           rdf:resource="http://purl.org/dc/dcmitype/StillImage" /></cc:Work></rdf:RDF></metadata><defs
     id="defs6"><clipPath
       id="clipPath20"
       clipPathUnits="userSpaceOnUse"><path
         id="path18"
         d="M 0,792 H 792 V 0 H 0 Z" /></clipPath></defs><g
     transform="matrix(1.3333333,0,0,-1.3333333,0,1056)"
     id="g10"><path
       id="path12"
       style="fill:#242424;fill-opacity:1;fill-rule:nonzero;stroke:none"
       d="M 0,0 H 792 V 792 H 0 Z" /><g
       id="g14"><g
         clip-path="url(#clipPath20)"
         id="g16"><g
           transform="translate(352.6339,341.6781)"
           id="g22"><path
             id="path24"
             style="fill:none;stroke:#ffffff;stroke-width:4;stroke-linecap:butt;stroke-linejoin:miter;stroke-miterlimit:10;stroke-dasharray:none;stroke-opacity:1"
             d="m 0,0 h -85.932 c -32.825,0 -59.435,26.61 -59.435,59.435 v 5.472 c 0,32.825 26.61,59.435 59.435,59.435 H 0 c 32.825,0 59.435,-26.61 59.435,-59.435 V 59.435 C 59.435,26.61 32.825,0 0,0 Z" /></g><g
           transform="translate(352.1558,460.2151)"
           id="g26"><path
             id="path28"
             style="fill:#40fc00;fill-opacity:1;fill-rule:nonzero;stroke:none"
             d="m 0,0 c 2.846,-0.614 5.154,-2.051 6.368,-4.746 0.56,-1.244 0.873,-2.709 0.879,-4.076 0.063,-13.608 0.05,-27.216 0.032,-40.824 -0.006,-4.307 -2.405,-7.496 -6.348,-8.578 -4.72,-1.295 -9.956,2.43 -10.27,7.306 -0.009,0.141 -0.024,0.282 -0.024,0.423 -0.004,14.138 -0.057,28.276 0.025,42.413 0.023,4 2.785,7.022 6.718,7.918 0.17,0.038 0.332,0.108 0.499,0.164 z" /></g><g
           transform="translate(401.2729,401.7396)"
           id="g30"><path
             id="path32"
             style="fill:#40fc00;fill-opacity:1;fill-rule:nonzero;stroke:none"
             d="m 0,0 c -0.035,-20.316 -12.461,-38.766 -31.305,-46.384 -21.194,-8.567 -45.125,-2.046 -58.849,16.216 -7.401,9.85 -10.887,21.042 -10.026,33.371 1.051,15.066 7.654,27.284 19.609,36.547 5.286,4.097 12.5,1.382 13.538,-5.089 0.452,-2.819 -0.314,-5.377 -2.488,-7.302 -2.568,-2.273 -5.233,-4.431 -7.294,-7.214 -5.598,-7.559 -7.955,-16.027 -6.289,-25.281 2.586,-14.362 11.154,-23.577 25.238,-27.315 8.499,-2.256 16.707,-0.85 24.325,3.537 8.702,5.012 14.187,12.555 16.057,22.343 2.455,12.855 -1.511,23.699 -11.451,32.28 -1.473,1.272 -3.012,2.439 -3.815,4.313 -1.423,3.319 -0.555,7.273 2.185,9.676 2.706,2.373 6.804,2.746 9.836,0.68 5.208,-3.549 9.409,-8.106 12.801,-13.404 C -3.807,20.536 -1.288,13.51 -0.392,5.92 -0.16,3.959 -0.125,1.974 0,0" /></g><g
           transform="translate(426.5718,459.3431)"
           id="g34"><path
             id="path36"
             style="fill:#ffffff;fill-opacity:1;fill-rule:nonzero;stroke:none"
             d="m 0,0 v -104.843 h 34.948 v 46.737 l 38.316,-46.737 H 104 L 104,0 H 68.632 L 69.053,-44.632 34.105,0 Z" /></g></g></g></g></svg>